<?xml version="1.0" encoding="UTF-8" standalone="no"?><svg xmlns="http://www.w3.org/2000/svg" xmlns:xlink="http://www.w3.org/1999/xlink" contentScriptType="application/ecmascript" contentStyleType="text/css" height="318px" preserveAspectRatio="none" style="width:576px;height:318px;" version="1.1" viewBox="0 0 576 318" width="576px" zoomAndPan="magnify"><defs><filter height="300%" id="fsh57vv52qy0g" width="300%" x="-1" y="-1"><feGaussianBlur result="blurOut" stdDeviation="2.0"/><feColorMatrix in="blurOut" result="blurOut2" type="matrix" values="0 0 0 0 0 0 0 0 0 0 0 0 0 0 0 0 0 0 .4 0"/><feOffset dx="4.0" dy="4.0" in="blurOut2" result="blurOut3"/><feBlend in="SourceGraphic" in2="blurOut3" mode="normal"/></filter></defs><g><!--MD5=[2c589014e840926a718801db2289e0a7]
class Creator--><rect codeLine="1" fill="#FEFECE" filter="url(#fsh57vv52qy0g)" height="61.8359" id="Creator" style="stroke: #A80036; stroke-width: 1.5;" width="133" x="196" y="7"/><ellipse cx="238" cy="23" fill="#ADD1B2" rx="11" ry="11" style="stroke: #A80036; stroke-width: 1.0;"/><path d="M240.7656,18.875 Q240.9219,18.6563 241.1094,18.5469 Q241.2969,18.4375 241.5156,18.4375 Q241.8906,18.4375 242.125,18.6953 Q242.3594,18.9531 242.3594,19.5625 L242.3594,21.0156 Q242.3594,21.625 242.125,21.8906 Q241.8906,22.1563 241.5156,22.1563 Q241.1719,22.1563 240.9688,21.9531 Q240.7656,21.7656 240.6563,21.25 Q240.6094,20.8906 240.4219,20.7031 Q240.0938,20.3281 239.4844,20.1094 Q238.875,19.8906 238.25,19.8906 Q237.4844,19.8906 236.8516,20.2188 Q236.2188,20.5469 235.7266,21.2969 Q235.2344,22.0469 235.2344,23.0781 L235.2344,24.1719 Q235.2344,25.4063 236.125,26.2266 Q237.0156,27.0469 238.6094,27.0469 Q239.5469,27.0469 240.2031,26.7969 Q240.5938,26.6406 241.0156,26.2031 Q241.2813,25.9375 241.4297,25.8594 Q241.5781,25.7813 241.7813,25.7813 Q242.1094,25.7813 242.3672,26.0391 Q242.625,26.2969 242.625,26.6406 Q242.625,26.9844 242.2813,27.3906 Q241.7813,27.9688 240.9844,28.2969 Q239.9063,28.75 238.6094,28.75 Q237.0938,28.75 235.8906,28.125 Q234.9063,27.625 234.2188,26.5547 Q233.5313,25.4844 233.5313,24.2031 L233.5313,23.0469 Q233.5313,21.7188 234.1484,20.5703 Q234.7656,19.4219 235.8594,18.8047 Q236.9531,18.1875 238.1875,18.1875 Q238.9219,18.1875 239.5703,18.3516 Q240.2188,18.5156 240.7656,18.875 Z "/><text fill="#000000" font-family="sans-serif" font-size="12" lengthAdjust="spacingAndGlyphs" textLength="41" x="258" y="27.9102">Creator</text><line style="stroke: #A80036; stroke-width: 1.5;" x1="197" x2="328" y1="39" y2="39"/><line style="stroke: #A80036; stroke-width: 1.5;" x1="197" x2="328" y1="47" y2="47"/><text fill="#000000" font-family="sans-serif" font-size="11" font-style="italic" lengthAdjust="spacingAndGlyphs" textLength="121" x="202" y="62.4189">factoryMethod(): Product</text><!--MD5=[9f84bda03622407ef060f60512b88649]
class ConcreteCreatorA--><rect codeLine="5" fill="#FEFECE" filter="url(#fsh57vv52qy0g)" height="61.8359" id="ConcreteCreatorA" style="stroke: #A80036; stroke-width: 1.5;" width="147" x="7" y="129"/><ellipse cx="29.65" cy="145" fill="#ADD1B2" rx="11" ry="11" style="stroke: #A80036; stroke-width: 1.0;"/><path d="M32.4156,140.875 Q32.5719,140.6563 32.7594,140.5469 Q32.9469,140.4375 33.1656,140.4375 Q33.5406,140.4375 33.775,140.6953 Q34.0094,140.9531 34.0094,141.5625 L34.0094,143.0156 Q34.0094,143.625 33.775,143.8906 Q33.5406,144.1563 33.1656,144.1563 Q32.8219,144.1563 32.6188,143.9531 Q32.4156,143.7656 32.3063,143.25 Q32.2594,142.8906 32.0719,142.7031 Q31.7438,142.3281 31.1344,142.1094 Q30.525,141.8906 29.9,141.8906 Q29.1344,141.8906 28.5016,142.2188 Q27.8688,142.5469 27.3766,143.2969 Q26.8844,144.0469 26.8844,145.0781 L26.8844,146.1719 Q26.8844,147.4063 27.775,148.2266 Q28.6656,149.0469 30.2594,149.0469 Q31.1969,149.0469 31.8531,148.7969 Q32.2438,148.6406 32.6656,148.2031 Q32.9313,147.9375 33.0797,147.8594 Q33.2281,147.7813 33.4313,147.7813 Q33.7594,147.7813 34.0172,148.0391 Q34.275,148.2969 34.275,148.6406 Q34.275,148.9844 33.9313,149.3906 Q33.4313,149.9688 32.6344,150.2969 Q31.5563,150.75 30.2594,150.75 Q28.7438,150.75 27.5406,150.125 Q26.5563,149.625 25.8688,148.5547 Q25.1813,147.4844 25.1813,146.2031 L25.1813,145.0469 Q25.1813,143.7188 25.7984,142.5703 Q26.4156,141.4219 27.5094,140.8047 Q28.6031,140.1875 29.8375,140.1875 Q30.5719,140.1875 31.2203,140.3516 Q31.8688,140.5156 32.4156,140.875 Z "/><text fill="#000000" font-family="sans-serif" font-size="12" lengthAdjust="spacingAndGlyphs" textLength="98" x="45.35" y="149.9102">ConcreteCreatorA</text><line style="stroke: #A80036; stroke-width: 1.5;" x1="8" x2="153" y1="161" y2="161"/><line style="stroke: #A80036; stroke-width: 1.5;" x1="8" x2="153" y1="169" y2="169"/><ellipse cx="18" cy="180" fill="#84BE84" rx="3" ry="3" style="stroke: #038048; stroke-width: 1.0;"/><text fill="#000000" font-family="sans-serif" font-size="11" lengthAdjust="spacingAndGlyphs" textLength="121" x="27" y="184.4189">factoryMethod(): Product</text><!--MD5=[e0ec6819900d5ac2984e4e9769287075]
class ConcreteCreatorB--><rect codeLine="10" fill="#FEFECE" filter="url(#fsh57vv52qy0g)" height="61.8359" id="ConcreteCreatorB" style="stroke: #A80036; stroke-width: 1.5;" width="147" x="189" y="129"/><ellipse cx="211.2" cy="145" fill="#ADD1B2" rx="11" ry="11" style="stroke: #A80036; stroke-width: 1.0;"/><path d="M213.9656,140.875 Q214.1219,140.6563 214.3094,140.5469 Q214.4969,140.4375 214.7156,140.4375 Q215.0906,140.4375 215.325,140.6953 Q215.5594,140.9531 215.5594,141.5625 L215.5594,143.0156 Q215.5594,143.625 215.325,143.8906 Q215.0906,144.1563 214.7156,144.1563 Q214.3719,144.1563 214.1688,143.9531 Q213.9656,143.7656 213.8563,143.25 Q213.8094,142.8906 213.6219,142.7031 Q213.2938,142.3281 212.6844,142.1094 Q212.075,141.8906 211.45,141.8906 Q210.6844,141.8906 210.0516,142.2188 Q209.4188,142.5469 208.9266,143.2969 Q208.4344,144.0469 208.4344,145.0781 L208.4344,146.1719 Q208.4344,147.4063 209.325,148.2266 Q210.2156,149.0469 211.8094,149.0469 Q212.7469,149.0469 213.4031,148.7969 Q213.7938,148.6406 214.2156,148.2031 Q214.4813,147.9375 214.6297,147.8594 Q214.7781,147.7813 214.9813,147.7813 Q215.3094,147.7813 215.5672,148.0391 Q215.825,148.2969 215.825,148.6406 Q215.825,148.9844 215.4813,149.3906 Q214.9813,149.9688 214.1844,150.2969 Q213.1063,150.75 211.8094,150.75 Q210.2938,150.75 209.0906,150.125 Q208.1063,149.625 207.4188,148.5547 Q206.7313,147.4844 206.7313,146.2031 L206.7313,145.0469 Q206.7313,143.7188 207.3484,142.5703 Q207.9656,141.4219 209.0594,140.8047 Q210.1531,140.1875 211.3875,140.1875 Q212.1219,140.1875 212.7703,140.3516 Q213.4188,140.5156 213.9656,140.875 Z "/><text fill="#000000" font-family="sans-serif" font-size="12" lengthAdjust="spacingAndGlyphs" textLength="99" x="226.8" y="149.9102">ConcreteCreatorB</text><line style="stroke: #A80036; stroke-width: 1.5;" x1="190" x2="335" y1="161" y2="161"/><line style="stroke: #A80036; stroke-width: 1.5;" x1="190" x2="335" y1="169" y2="169"/><ellipse cx="200" cy="180" fill="#84BE84" rx="3" ry="3" style="stroke: #038048; stroke-width: 1.0;"/><text fill="#000000" font-family="sans-serif" font-size="11" lengthAdjust="spacingAndGlyphs" textLength="121" x="209" y="184.4189">factoryMethod(): Product</text><!--MD5=[72136138052d025cffdce3c22fbd185f]
class Product--><rect fill="#FEFECE" filter="url(#fsh57vv52qy0g)" height="48" id="Product" style="stroke: #A80036; stroke-width: 1.5;" width="74" x="371.5" y="136"/><ellipse cx="386.5" cy="152" fill="#ADD1B2" rx="11" ry="11" style="stroke: #A80036; stroke-width: 1.0;"/><path d="M389.2656,147.875 Q389.4219,147.6563 389.6094,147.5469 Q389.7969,147.4375 390.0156,147.4375 Q390.3906,147.4375 390.625,147.6953 Q390.8594,147.9531 390.8594,148.5625 L390.8594,150.0156 Q390.8594,150.625 390.625,150.8906 Q390.3906,151.1563 390.0156,151.1563 Q389.6719,151.1563 389.4688,150.9531 Q389.2656,150.7656 389.1563,150.25 Q389.1094,149.8906 388.9219,149.7031 Q388.5938,149.3281 387.9844,149.1094 Q387.375,148.8906 386.75,148.8906 Q385.9844,148.8906 385.3516,149.2188 Q384.7188,149.5469 384.2266,150.2969 Q383.7344,151.0469 383.7344,152.0781 L383.7344,153.1719 Q383.7344,154.4063 384.625,155.2266 Q385.5156,156.0469 387.1094,156.0469 Q388.0469,156.0469 388.7031,155.7969 Q389.0938,155.6406 389.5156,155.2031 Q389.7813,154.9375 389.9297,154.8594 Q390.0781,154.7813 390.2813,154.7813 Q390.6094,154.7813 390.8672,155.0391 Q391.125,155.2969 391.125,155.6406 Q391.125,155.9844 390.7813,156.3906 Q390.2813,156.9688 389.4844,157.2969 Q388.4063,157.75 387.1094,157.75 Q385.5938,157.75 384.3906,157.125 Q383.4063,156.625 382.7188,155.5547 Q382.0313,154.4844 382.0313,153.2031 L382.0313,152.0469 Q382.0313,150.7188 382.6484,149.5703 Q383.2656,148.4219 384.3594,147.8047 Q385.4531,147.1875 386.6875,147.1875 Q387.4219,147.1875 388.0703,147.3516 Q388.7188,147.5156 389.2656,147.875 Z "/><text fill="#000000" font-family="sans-serif" font-size="12" lengthAdjust="spacingAndGlyphs" textLength="42" x="400.5" y="156.9102">Product</text><line style="stroke: #A80036; stroke-width: 1.5;" x1="372.5" x2="444.5" y1="168" y2="168"/><line style="stroke: #A80036; stroke-width: 1.5;" x1="372.5" x2="444.5" y1="176" y2="176"/><!--MD5=[6f5007e1c68ae197b6a2c49f2221322a]
class ConcreteProductA--><rect fill="#FEFECE" filter="url(#fsh57vv52qy0g)" height="48" id="ConcreteProductA" style="stroke: #A80036; stroke-width: 1.5;" width="131" x="259" y="251"/><ellipse cx="274" cy="267" fill="#ADD1B2" rx="11" ry="11" style="stroke: #A80036; stroke-width: 1.0;"/><path d="M276.7656,262.875 Q276.9219,262.6563 277.1094,262.5469 Q277.2969,262.4375 277.5156,262.4375 Q277.8906,262.4375 278.125,262.6953 Q278.3594,262.9531 278.3594,263.5625 L278.3594,265.0156 Q278.3594,265.625 278.125,265.8906 Q277.8906,266.1563 277.5156,266.1563 Q277.1719,266.1563 276.9688,265.9531 Q276.7656,265.7656 276.6563,265.25 Q276.6094,264.8906 276.4219,264.7031 Q276.0938,264.3281 275.4844,264.1094 Q274.875,263.8906 274.25,263.8906 Q273.4844,263.8906 272.8516,264.2188 Q272.2188,264.5469 271.7266,265.2969 Q271.2344,266.0469 271.2344,267.0781 L271.2344,268.1719 Q271.2344,269.4063 272.125,270.2266 Q273.0156,271.0469 274.6094,271.0469 Q275.5469,271.0469 276.2031,270.7969 Q276.5938,270.6406 277.0156,270.2031 Q277.2813,269.9375 277.4297,269.8594 Q277.5781,269.7813 277.7813,269.7813 Q278.1094,269.7813 278.3672,270.0391 Q278.625,270.2969 278.625,270.6406 Q278.625,270.9844 278.2813,271.3906 Q277.7813,271.9688 276.9844,272.2969 Q275.9063,272.75 274.6094,272.75 Q273.0938,272.75 271.8906,272.125 Q270.9063,271.625 270.2188,270.5547 Q269.5313,269.4844 269.5313,268.2031 L269.5313,267.0469 Q269.5313,265.7188 270.1484,264.5703 Q270.7656,263.4219 271.8594,262.8047 Q272.9531,262.1875 274.1875,262.1875 Q274.9219,262.1875 275.5703,262.3516 Q276.2188,262.5156 276.7656,262.875 Z "/><text fill="#000000" font-family="sans-serif" font-size="12" lengthAdjust="spacingAndGlyphs" textLength="99" x="288" y="271.9102">ConcreteProductA</text><line style="stroke: #A80036; stroke-width: 1.5;" x1="260" x2="389" y1="283" y2="283"/><line style="stroke: #A80036; stroke-width: 1.5;" x1="260" x2="389" y1="291" y2="291"/><!--MD5=[11c793f6f48c6887422b4b9cce32ef56]
class ConcreteProductB--><rect fill="#FEFECE" filter="url(#fsh57vv52qy0g)" height="48" id="ConcreteProductB" style="stroke: #A80036; stroke-width: 1.5;" width="132" x="425.5" y="251"/><ellipse cx="440.5" cy="267" fill="#ADD1B2" rx="11" ry="11" style="stroke: #A80036; stroke-width: 1.0;"/><path d="M443.2656,262.875 Q443.4219,262.6563 443.6094,262.5469 Q443.7969,262.4375 444.0156,262.4375 Q444.3906,262.4375 444.625,262.6953 Q444.8594,262.9531 444.8594,263.5625 L444.8594,265.0156 Q444.8594,265.625 444.625,265.8906 Q444.3906,266.1563 444.0156,266.1563 Q443.6719,266.1563 443.4688,265.9531 Q443.2656,265.7656 443.1563,265.25 Q443.1094,264.8906 442.9219,264.7031 Q442.5938,264.3281 441.9844,264.1094 Q441.375,263.8906 440.75,263.8906 Q439.9844,263.8906 439.3516,264.2188 Q438.7188,264.5469 438.2266,265.2969 Q437.7344,266.0469 437.7344,267.0781 L437.7344,268.1719 Q437.7344,269.4063 438.625,270.2266 Q439.5156,271.0469 441.1094,271.0469 Q442.0469,271.0469 442.7031,270.7969 Q443.0938,270.6406 443.5156,270.2031 Q443.7813,269.9375 443.9297,269.8594 Q444.0781,269.7813 444.2813,269.7813 Q444.6094,269.7813 444.8672,270.0391 Q445.125,270.2969 445.125,270.6406 Q445.125,270.9844 444.7813,271.3906 Q444.2813,271.9688 443.4844,272.2969 Q442.4063,272.75 441.1094,272.75 Q439.5938,272.75 438.3906,272.125 Q437.4063,271.625 436.7188,270.5547 Q436.0313,269.4844 436.0313,268.2031 L436.0313,267.0469 Q436.0313,265.7188 436.6484,264.5703 Q437.2656,263.4219 438.3594,262.8047 Q439.4531,262.1875 440.6875,262.1875 Q441.4219,262.1875 442.0703,262.3516 Q442.7188,262.5156 443.2656,262.875 Z "/><text fill="#000000" font-family="sans-serif" font-size="12" lengthAdjust="spacingAndGlyphs" textLength="100" x="454.5" y="271.9102">ConcreteProductB</text><line style="stroke: #A80036; stroke-width: 1.5;" x1="426.5" x2="556.5" y1="283" y2="283"/><line style="stroke: #A80036; stroke-width: 1.5;" x1="426.5" x2="556.5" y1="291" y2="291"/><!--MD5=[a1f955bf317dda8c1afc267cb4f57d57]
reverse link Creator to ConcreteCreatorA--><path codeLine="8" d="M199.605,80.469 C175.436,96.405 148.334,114.274 126.096,128.937 " fill="none" id="Creator-backto-ConcreteCreatorA" style="stroke: #A80036; stroke-width: 1.0;"/><polygon fill="none" points="196.023,74.446,216.574,69.281,203.73,86.134,196.023,74.446" style="stroke: #A80036; stroke-width: 1.0;"/><!--MD5=[ea54d07fbf0dea1e98d8f0139e3903c5]
reverse link Creator to ConcreteCreatorB--><path codeLine="13" d="M262.5,89.373 C262.5,102.754 262.5,116.792 262.5,128.729 " fill="none" id="Creator-backto-ConcreteCreatorB" style="stroke: #A80036; stroke-width: 1.0;"/><polygon fill="none" points="255.5,89.281,262.5,69.281,269.5,89.281,255.5,89.281" style="stroke: #A80036; stroke-width: 1.0;"/><!--MD5=[9046728ffccef25c7ecc784b4df03c70]
reverse link Product to ConcreteProductA--><path codeLine="15" d="M379.271,200.3204 C366.72,217.2037 352.489,236.3487 341.678,250.891 " fill="none" id="Product-backto-ConcreteProductA" style="stroke: #A80036; stroke-width: 1.0;"/><polygon fill="none" points="373.749,196.015,391.299,184.14,384.985,204.367,373.749,196.015" style="stroke: #A80036; stroke-width: 1.0;"/><!--MD5=[176390addf7664512acacb798f62abe7]
reverse link Product to ConcreteProductB--><path codeLine="16" d="M437.381,200.3204 C449.782,217.2037 463.845,236.3487 474.526,250.891 " fill="none" id="Product-backto-ConcreteProductB" style="stroke: #A80036; stroke-width: 1.0;"/><polygon fill="none" points="431.695,204.4028,425.497,184.14,442.978,196.115,431.695,204.4028" style="stroke: #A80036; stroke-width: 1.0;"/><!--MD5=[423becb7af04490ee7f6b3c77f432651]
link Creator to Product--><path codeLine="17" d="M299.342,69.281 C323.139,88.84 353.794,114.036 376.557,132.745 " fill="none" id="Creator-to-Product" style="stroke: #A80036; stroke-width: 1.0;"/><polygon fill="#A80036" points="380.425,135.925,376.013,127.1196,376.5627,132.7497,370.9326,133.2994,380.425,135.925" style="stroke: #A80036; stroke-width: 1.0;"/><!--MD5=[be07b90b706e8ba4b6abba86576bb2bb]
@startuml
class Creator {
{abstract} factoryMethod(): Product
}

class ConcreteCreatorA {
+factoryMethod(): Product
}
Creator <|- - ConcreteCreatorA

class ConcreteCreatorB {
+factoryMethod(): Product
}
Creator <|- - ConcreteCreatorB

Product <|- - ConcreteProductA
Product <|- - ConcreteProductB
Creator - -> Product
@enduml

PlantUML version 1.2020.16(Sun Aug 23 23:20:43 MSK 2020)
(GPL source distribution)
Java Runtime: Java(TM) SE Runtime Environment
JVM: Java HotSpot(TM) 64-Bit Server VM
Default Encoding: Cp1251
Language: en
Country: US
--></g></svg>